<?xml version="1.0" encoding="UTF-8" standalone="no"?>
<svg
   xmlns:dc="http://purl.org/dc/elements/1.1/"
   xmlns:cc="http://creativecommons.org/ns#"
   xmlns:rdf="http://www.w3.org/1999/02/22-rdf-syntax-ns#"
   xmlns:svg="http://www.w3.org/2000/svg"
   xmlns="http://www.w3.org/2000/svg"
   xmlns:sodipodi="http://sodipodi.sourceforge.net/DTD/sodipodi-0.dtd"
   xmlns:inkscape="http://www.inkscape.org/namespaces/inkscape"
   width="24"
   height="24"
   fill-rule="evenodd"
   clip-rule="evenodd"
   version="1.1"
   id="svg4"
   sodipodi:docname="git-icon.svg"
   inkscape:version="0.92.4 (unknown)">
  <metadata
     id="metadata10">
    <rdf:RDF>
      <cc:Work
         rdf:about="">
        <dc:format>image/svg+xml</dc:format>
        <dc:type
           rdf:resource="http://purl.org/dc/dcmitype/StillImage" />
      </cc:Work>
    </rdf:RDF>
  </metadata>
  <defs
     id="defs8" />
  <sodipodi:namedview
     pagecolor="#ffffff"
     bordercolor="#666666"
     borderopacity="1"
     objecttolerance="10"
     gridtolerance="10"
     guidetolerance="10"
     inkscape:pageopacity="0"
     inkscape:pageshadow="2"
     inkscape:window-width="640"
     inkscape:window-height="480"
     id="namedview6"
     showgrid="false"
     inkscape:zoom="9.8333333"
     inkscape:cx="9.3714075"
     inkscape:cy="8.9491525"
     inkscape:window-x="319"
     inkscape:window-y="157"
     inkscape:window-maximized="0"
     inkscape:current-layer="svg4" />
  <path
     d="M23.548 10.931l-10.479-10.478c-.302-.302-.698-.453-1.093-.453-.396 0-.791.151-1.093.453l-2.176 2.176 2.76 2.76c.642-.216 1.377-.071 1.889.44.513.515.658 1.256.435 1.9l2.66 2.66c.644-.222 1.387-.078 1.901.437.718.718.718 1.881 0 2.6-.719.719-1.883.719-2.602 0-.54-.541-.674-1.334-.4-2l-2.481-2.481v6.529c.175.087.34.202.487.348.717.717.717 1.881 0 2.601-.719.718-1.884.718-2.601 0-.719-.72-.719-1.884 0-2.601.177-.178.383-.312.602-.402v-6.589c-.219-.089-.425-.223-.602-.401-.544-.544-.676-1.343-.396-2.011l-2.721-2.721-7.185 7.185c-.302.302-.453.697-.453 1.093 0 .395.151.791.453 1.093l10.479 10.478c.302.302.697.452 1.092.452.396 0 .791-.15 1.093-.452l10.431-10.428c.302-.303.452-.699.452-1.094 0-.396-.15-.791-.452-1.093"
     id="path2"
     style="fill:#aaffaa" />
</svg>
