<?xml version="1.0" encoding="UTF-8" standalone="no"?>
<!-- Created with Inkscape (http://www.inkscape.org/) -->

<svg
   xmlns:dc="http://purl.org/dc/elements/1.1/"
   xmlns:cc="http://creativecommons.org/ns#"
   xmlns:rdf="http://www.w3.org/1999/02/22-rdf-syntax-ns#"
   xmlns:svg="http://www.w3.org/2000/svg"
   xmlns="http://www.w3.org/2000/svg"
   xmlns:sodipodi="http://sodipodi.sourceforge.net/DTD/sodipodi-0.dtd"
   xmlns:inkscape="http://www.inkscape.org/namespaces/inkscape"
   width="128px"
   height="128px"
   viewBox="0 0 210 297"
   version="1.1"
   id="svg151"
   inkscape:version="0.92.3 (unknown)"
   sodipodi:docname="close-x.svg">
  <defs
     id="defs145" />
  <sodipodi:namedview
     id="base"
     pagecolor="#ffffff"
     bordercolor="#666666"
     borderopacity="1.0"
     inkscape:pageopacity="0.0"
     inkscape:pageshadow="12"
     inkscape:zoom="0.35"
     inkscape:cx="400"
     inkscape:cy="560"
     inkscape:document-units="mm"
     inkscape:current-layer="layer1"
     showgrid="false"
     inkscape:window-width="1366"
     inkscape:window-height="718"
     inkscape:window-x="0"
     inkscape:window-y="0"
     inkscape:window-maximized="1" />
  <metadata
     id="metadata148">
    <rdf:RDF>
      <cc:Work
         rdf:about="">
        <dc:format>image/svg+xml</dc:format>
        <dc:type
           rdf:resource="http://purl.org/dc/dcmitype/StillImage" />
        <dc:title></dc:title>
      </cc:Work>
    </rdf:RDF>
  </metadata>
  <g
     inkscape:label="Layer 1"
     inkscape:groupmode="layer"
     id="layer1">
    <path
       style="fill:red;stroke:#ff8080;stroke-width:0.3036626"
       id="path38-3"
       d="m 80.073981,143.07221 c 3.53642,-3.70405 7.286354,-7.36484 11.036964,-11.01903 5.207553,-5.05416 10.467505,-10.09221 15.717865,-15.13309 4.24958,-4.08317 8.50683,-8.16401 12.74561,-12.25083 2.54759,-2.4373 5.06732,-4.883091 7.60374,-7.323811 1.40928,-1.373511 2.84429,-2.738451 4.2788,-4.103881 2.34882,-2.22261 4.67969,-4.45142 6.99213,-6.68585 0.8005,-0.76722 14.44967,-16.06067 15.24099,-16.83069 l -19.42912,34.208382 -2.03028,-4.013632 c -0.78475,0.740012 0.77595,-0.742929 0,0 -2.35585,2.236542 -4.69227,4.479682 -7.01182,6.727702 -1.41581,1.36452 -2.82975,2.72948 -4.27107,4.08577 -2.50891,2.39177 -5.03537,4.77764 -7.53407,7.17292 -4.23235,4.02385 -8.44796,8.0534 -12.66524,12.08233 -5.260541,5.03598 -10.516674,10.07466 -15.6857,15.13816 -3.780394,3.73014 -17.646584,18.5452 -21.005222,22.34708 l 15.725407,-31.67662 z"
       inkscape:connector-curvature="0"
       sodipodi:nodetypes="ccccccccccccccccccc" />
    <path
       style="fill:red;stroke:#ff8080;stroke-width:0.26868421"
       id="path38-3-7"
       d="m 131.30023,139.96149 c -3.40876,-3.59636 -6.87063,-7.0319 -10.32898,-10.45783 -4.7906,-4.72919 -9.59116,-9.41097 -14.38971,-14.10142 -3.88554,-3.80144 -7.773041,-7.59517 -11.656799,-11.40578 -2.323316,-2.26358 -4.641572,-4.552252 -6.962858,-6.825962 -1.299731,-1.28786 -2.60393,-2.55185 -3.908517,-3.81622 -2.128079,-2.0522 -4.253225,-4.12182 -6.374941,-6.2077 -0.730641,-0.71347 -14.45757,-16.00532 -15.186672,-16.72682 l 26.654171,39.376972 -1.555068,-6.62783 c 0.709704,0.68187 -0.707946,-0.69038 0,0 2.138588,2.0687 4.273953,4.15593 6.406042,6.25819 1.296964,1.27227 2.593657,2.54571 3.895267,3.79429 2.283265,2.21704 4.569645,4.41786 6.851195,6.64475 3.84546,3.72491 7.68818,7.46561 11.53114,11.20465 4.79926,4.67876 9.59895,9.36286 14.38095,14.12359 3.51267,3.51965 17.04491,18.03338 20.44475,21.851 l -23.85503,-37.51855 z"
       inkscape:connector-curvature="0"
       sodipodi:nodetypes="ccccccccccccccccccc"
       inkscape:transform-center-x="-0.43607753"
       inkscape:transform-center-y="2.2321721" />
  </g>
</svg>
