<?xml version="1.0" encoding="UTF-8" standalone="no"?>
<!-- Created with Inkscape (http://www.inkscape.org/) -->

<svg
   xmlns:dc="http://purl.org/dc/elements/1.1/"
   xmlns:cc="http://creativecommons.org/ns#"
   xmlns:rdf="http://www.w3.org/1999/02/22-rdf-syntax-ns#"
   xmlns:svg="http://www.w3.org/2000/svg"
   xmlns="http://www.w3.org/2000/svg"
   xmlns:sodipodi="http://sodipodi.sourceforge.net/DTD/sodipodi-0.dtd"
   xmlns:inkscape="http://www.inkscape.org/namespaces/inkscape"
   sodipodi:docname="option-open.svg"
   inkscape:version="0.92.3 (unknown)"
   id="svg8"
   version="1.1"
   viewBox="0 0 210 297"
   height="128px"
   width="128px">
  <defs
     id="defs2" />
  <sodipodi:namedview
     inkscape:window-maximized="1"
     inkscape:window-y="0"
     inkscape:window-x="0"
     inkscape:window-height="718"
     inkscape:window-width="1366"
     showgrid="false"
     inkscape:current-layer="layer1"
     inkscape:document-units="mm"
     inkscape:cy="64"
     inkscape:cx="64"
     inkscape:zoom="4.015625"
     inkscape:pageshadow="2"
     inkscape:pageopacity="0.0"
     borderopacity="1.0"
     bordercolor="#666666"
     pagecolor="#ffffff"
     id="base"
     showguides="false">
    <inkscape:grid
       type="xygrid"
       id="grid227" />
  </sodipodi:namedview>
  <metadata
     id="metadata5">
    <rdf:RDF>
      <cc:Work
         rdf:about="">
        <dc:format>image/svg+xml</dc:format>
        <dc:type
           rdf:resource="http://purl.org/dc/dcmitype/StillImage" />
        <dc:title />
      </cc:Work>
    </rdf:RDF>
  </metadata>
  <g
     inkscape:label="Layer 1"
     inkscape:groupmode="layer"
     id="layer1">
    <path
       style="fill:#666666;stroke:#ff8080;stroke-width:0.55389947"
       id="path89"
       d="m 139.00428,134.26439 c -4.43144,-2.68718 10.72527,1.28001 6.39447,-1.51852 -11.55813,-8.14203 -15.18896,-11.01356 -26.66387,-20.03826 -1.69789,-1.33996 -7.65911,-6.55091 -9.40029,-6.49779 -1.9691,0.0601 -6.34667,3.27109 -9.18939,5.1779 -7.714283,6.18274 -20.44778,15.17034 -27.945632,20.62197 -3.509902,2.54656 2.554149,-3.21744 0,0 -0.58023,0.79469 10.029033,0.57856 9.446241,1.37192 l -23.437476,3.93261 c 0.610992,-0.82517 -0.596066,0.82946 0,0 0,0 2.402553,-1.15564 6.102405,-3.77297 7.226687,-5.19729 14.968958,-10.54063 21.919543,-15.97251 8.776141,-5.68737 20.765929,-17.31744 26.591209,-13.44531 3.0855,2.07218 5.11318,4.46391 8.16162,6.57337 4.1488,2.83514 7.20608,5.53307 11.38601,8.33733 5.7286,3.80925 11.46039,7.61553 17.28178,11.32865 4.40043,2.78114 8.87506,5.51096 13.61625,7.87118 v 0 z"
       inkscape:connector-curvature="0"
       sodipodi:nodetypes="cccsccccccccccccccc" />
    <path
       style="fill:#cccccc;stroke:#ff8080;stroke-width:0.46096402"
       id="path99-3"
       d="m 78.561942,137.10827 c 5.972624,0.0842 11.723552,0.0728 17.500295,0.0731 6.682343,0.007 13.349743,0.007 19.987483,-0.007 4.68885,-0.008 9.3516,-0.0268 14.00311,-0.0506 2.39003,-0.003 4.73448,-0.0256 7.12184,-0.0298 0.72315,-0.003 1.43503,-0.0114 2.1439,-0.0202 l -9.61979,7.09126 v 0 c -2.74015,-0.024 -8.5092,-0.0412 -13.9984,-0.0505 -6.69009,-0.0143 -13.34662,-0.0143 -19.984637,-0.007 -5.892475,3e-4 0.04776,-0.009 -5.64924,0.0734 l -11.50181,-7.07262 z"
       inkscape:connector-curvature="0"
       sodipodi:nodetypes="ccccccccccccc" />
    <path
       style="fill:#cccccc;stroke:#ff8080;stroke-width:0.36186191"
       id="path99-3-5"
       d="m 89.299191,127.77008 c 3.64548,0.085 7.15565,0.0735 10.68156,0.0738 4.078709,0.007 8.148239,0.007 12.199659,-0.007 2.86191,-0.008 5.7079,-0.0271 8.547,-0.0511 1.4588,-0.003 2.88977,-0.0258 4.34692,-0.0301 0.44139,-0.003 0.87591,-0.0115 1.30857,-0.0204 l -5.87158,7.15955 v 0 c -1.6725,-0.0242 -5.19372,-0.0416 -8.54413,-0.051 -4.08338,-0.0144 -8.14628,-0.0144 -12.197919,-0.007 -3.59656,2.9e-4 0.0291,-0.009 -3.4481,0.0741 l -7.0203,-7.14074 z"
       inkscape:connector-curvature="0"
       sodipodi:nodetypes="ccccccccccccc" />
    <path
       style="fill:#cccccc;stroke:#ff8080;stroke-width:0.30054846"
       id="path99-3-6"
       d="m 95.774733,117.98101 c 2.49705,0.0856 4.901397,0.074 7.316547,0.0743 2.79377,0.007 5.58127,0.007 8.35636,-0.007 1.96033,-0.008 3.90975,-0.0272 5.85446,-0.0514 0.99921,-0.003 1.97938,-0.026 2.97749,-0.0303 0.30235,-0.003 0.59997,-0.0115 0.89633,-0.0206 l -4.02185,7.21038 v 0 c -1.14561,-0.0244 -3.55753,-0.0419 -5.85248,-0.0514 -2.79697,-0.0145 -5.57993,-0.0145 -8.35518,-0.007 -2.46353,3e-4 0.0199,-0.009 -2.36184,0.0746 l -4.808687,-7.19144 z"
       inkscape:connector-curvature="0"
       sodipodi:nodetypes="ccccccccccccc" />
    <path
       style="fill:#666666;stroke:#ff8080;stroke-width:0.92583227"
       id="path99-3-3"
       d="m 59.012179,146.58077 c 10.120072,0.20046 23.061261,0.0504 32.84943,0.0511 11.322631,0.0167 19.423101,0.13965 30.670031,0.10625 0.92766,-0.002 1.85471,-0.005 2.7812,-0.008 7.00831,-0.022 13.98442,-0.0627 20.94564,-0.11267 4.04971,-0.008 8.02214,-0.0611 12.06725,-0.0709 1.22534,-0.008 2.43155,-0.0271 3.63264,-0.0481 l -16.29976,16.8825 v 0 c -4.64293,-0.0571 -14.41802,-0.0981 -23.7189,-0.12025 -11.33563,-0.0341 -25.073492,0.0888 -36.321015,0.10615 -9.572126,0.17475 2.539978,-0.14445 -7.113078,0.0518 L 59.01684,146.58088 Z"
       inkscape:connector-curvature="0"
       sodipodi:nodetypes="cccscccccccccc" />
  </g>
</svg>
