<?xml version="1.0" encoding="UTF-8" standalone="no"?>
<svg
   xmlns:dc="http://purl.org/dc/elements/1.1/"
   xmlns:cc="http://creativecommons.org/ns#"
   xmlns:rdf="http://www.w3.org/1999/02/22-rdf-syntax-ns#"
   xmlns:svg="http://www.w3.org/2000/svg"
   xmlns="http://www.w3.org/2000/svg"
   xmlns:sodipodi="http://sodipodi.sourceforge.net/DTD/sodipodi-0.dtd"
   xmlns:inkscape="http://www.inkscape.org/namespaces/inkscape"
   viewBox="0 0 841.9 595.3"
   version="1.1"
   id="svg8033"
   sodipodi:docname="shum.svg"
   inkscape:version="0.92.3 (unknown)">
  <metadata
     id="metadata8039">
    <rdf:RDF>
      <cc:Work
         rdf:about="">
        <dc:format>image/svg+xml</dc:format>
        <dc:type
           rdf:resource="http://purl.org/dc/dcmitype/StillImage" />
        <dc:title />
      </cc:Work>
    </rdf:RDF>
  </metadata>
  <defs
     id="defs8037" />
  <sodipodi:namedview
     pagecolor="#ffffff"
     bordercolor="#666666"
     borderopacity="1"
     objecttolerance="10"
     gridtolerance="10"
     guidetolerance="10"
     inkscape:pageopacity="0"
     inkscape:pageshadow="2"
     inkscape:window-width="1366"
     inkscape:window-height="718"
     id="namedview8035"
     showgrid="false"
     inkscape:zoom="0.45254834"
     inkscape:cx="448.56411"
     inkscape:cy="333.17598"
     inkscape:window-x="0"
     inkscape:window-y="0"
     inkscape:window-maximized="1"
     inkscape:current-layer="g8031"
     inkscape:lockguides="false" />
  <g
     id="g8031"
     transform="matrix(0.98971685,0,0,1.0577354,29.553783,-32.250391)"
     style="fill:#61dafb">
    <path
       d="m 666.3,296.5 c 0,-32.5 -40.7,-63.3 -103.1,-82.4 14.4,-63.6 -6.42436,-116.26501 -34.62436,-132.465007 -6.5,-3.8 -23.60257,9.426649 -31.90257,9.426649 L 520.6,100.4 c 4.6,0 8.3,0.9 11.4,2.6 13.6,7.8 19.5,37.5 14.9,75.7 -1.1,9.4 -2.9,19.3 -5.1,29.4 -19.6,-4.8 -41,-8.5 -63.5,-10.9 -13.5,-18.5 -27.5,-35.3 -41.6,-50 32.6,-30.3 63.2,-46.9 84,-46.9 l 7.87564,-18.665007 C 523.082,72.122749 509.04117,58.390729 476.25671,50.072529 422.03339,36.31478 376.90663,45.838335 347.33747,54.072099 231.41731,102.5623 389.17865,111.7868 320.9,78.4 l -8.96796,17.118333 c 20.7,0 60.36796,21.681667 92.96796,51.781667 -14,14.7 -28,31.4 -41.3,49.9 -22.6,2.4 -44,6.1 -63.6,11 -2.3,-10 -6.96823,-19.14453 -8.16823,-28.44453 -14.49515,-59.58562 -11.21166,-70.43582 10.00573,-82.501852 0,0 57.87021,-10.711028 37.46913,-11.743017 C 350.69207,70.175992 321.77505,68.843852 318.71666,70.61437 285.15964,81.904658 263.9,150.8 278.4,214.2 c -62.2,19.2 -102.7,49.9 -102.7,82.3 0,32.5 40.7,63.3 103.1,82.4 -14.4,63.6 -8,114.2 20.2,130.4 6.5,3.8 14.1,5.6 22.5,5.6 27.5,0 79.2,-35.3 115.6,-69.3 36.4,33.8 56.7,68.9 84.2,68.9 8.4,0 16,-1.8 22.6,-5.6 28.1,-16.2 34.4,-66.7 19.9,-130.1 62,-19.1 102.5,-49.9 102.5,-82.3 z M 536.1,229.8 c -3.7,12.9 -8.3,26.2 -13.5,39.5 -4.1,-8 -8.4,-16 -13.1,-24 -4.6,-8 -9.5,-15.8 -14.4,-23.4 14.2,2.1 27.9,4.7 41,7.9 z m -45.8,106.5 c -7.8,13.5 -15.8,26.3 -24.1,38.2 -14.9,1.3 -30,2 -45.2,2 -15.1,0 -30.2,-0.7 -45,-1.9 -8.3,-11.9 -16.4,-24.6 -24.2,-38 -7.6,-13.1 -14.5,-26.4 -20.8,-39.8 6.2,-13.4 13.2,-26.8 20.7,-39.9 7.8,-13.5 15.8,-26.3 24.1,-38.2 14.9,-1.3 30,-109.31473 45.2,-109.31473 15.1,0 30.2,108.01473 45,109.21473 8.3,11.9 16.4,24.6 24.2,38 7.6,13.1 14.5,26.4 20.8,39.8 -6.3,13.4 -13.2,26.8 -20.7,39.9 z m 32.3,-13 c 5.4,13.4 10,26.8 13.8,39.8 -13.1,3.2 -26.9,5.9 -41.2,8 4.9,-7.7 9.8,-15.6 14.4,-23.7 4.6,-8 8.9,-16.1 13,-24.1 z M 421.2,430 c -9.3,-9.6 -18.6,-20.3 -27.8,-32 9,0.4 18.2,0.7 27.5,0.7 9.4,0 18.7,-0.2 27.8,-0.7 -9,11.7 -18.3,22.4 -27.5,32 z m -74.4,-58.9 c -14.2,-2.1 -27.9,-4.7 -41,-7.9 3.7,-12.9 8.3,-26.2 13.5,-39.5 4.1,8 8.4,16 13.1,24 4.7,8 9.5,15.8 14.4,23.4 z M 420.7,163 c 9.3,9.6 18.6,20.3 27.8,32 -9,-0.4 -18.2,-0.7 -27.5,-0.7 -9.4,0 -18.7,0.2 -27.8,0.7 9,-11.7 18.3,-22.4 27.5,-32 z m -74,58.9 c -4.9,7.7 -9.8,15.6 -14.4,23.7 -4.6,8 -8.9,16 -13,24 -5.4,-13.4 -10,-26.8 -13.8,-39.8 13.1,-3.1 26.9,-5.8 41.2,-7.9 z m -52.27001,41.73299 c -35.4,-15.1 -175.53863,117.72539 -175.53863,102.02539 C 118.89136,349.95838 220.8,260.9 256.2,245.9 c 8.6,-3.7 18,-7 27.7,-10.1 5.7,19.6 13.2,40 22.5,60.9 -9.2,20.8 -16.6,41.1 -22.2,60.6 -9.9,-3.1 18.92999,-89.96701 10.22999,-93.66701 z M 310,490 c -13.6,-7.8 -19.5,-37.5 -14.9,-75.7 1.1,-9.4 2.9,-19.3 5.1,-29.4 19.6,4.8 41,8.5 63.5,10.9 13.5,18.5 59.3,35.1 73.4,49.8 -32.6,30.3 -54.22135,-5.36498 -75.02135,-5.36498 C 357.57865,440.13502 313,491.7 310,490 Z m 237.2,-76.2 c 4.7,38.2 -1.1,67.9 -14.6,75.8 -3,1.8 -34.93532,-49.86498 -39.53532,-49.86498 -20.7,0 -39.26468,20.36498 -71.86468,-9.73502 14,-14.7 43.9,-15.8 57.2,-34.3 22.6,-2.4 44,-6.1 63.6,-11 2.3,10.1 4.1,19.8 5.2,29.1 z m 5.36734,-143.0127 c -8.6,3.7 15.13266,83.3127 5.43266,86.4127 -5.7,-19.6 -13.2,-40 -22.5,-60.9 9.2,-20.8 16.6,-41.1 22.2,-60.6 9.9,3.1 19.3,6.5 28.1,10.2 35.4,15.1 241.80394,163.67768 81.23799,74.44772 -0.1,15.7 -79.07065,-64.56042 -114.47065,-49.56042 z"
       id="path8025"
       inkscape:connector-curvature="0"
       sodipodi:nodetypes="scccccccccccscccccccccccsccscsccscccccccscccccscccccccccccscccccscccsccccccccsccccccccccccccsccccccccccc"
       style="fill:#1fe;" />
    <path
       id="circle8027"
       sodipodi:type="arc"
       sodipodi:cx="420.41293"
       sodipodi:cy="270.48737"
       sodipodi:rx="52.399693"
       sodipodi:ry="76.525887"
       sodipodi:start="3.5672579"
       sodipodi:end="5.83684"
       d="m 372.68917,238.88778 a 52.399693,76.525887 0 0 1 47.18196,-44.92221 52.399693,76.525887 0 0 1 47.80794,43.48773 l -47.26614,33.03407 z"
       style="fill:#374548;stroke-width:0.92612714" />
       <!-- <animateTransform attributeName="transform" type="rotate" from="0 50 50" to="90 50 50" repeatCount="indefinite" dur="1s"></animateTransform> -->
    <path
       d="M 520.5,78.1 Z"
       id="path8029"
       inkscape:connector-curvature="0" />
    <path
       style="fill:#ff9955;stroke:#ff8080;stroke-width:0.97736323"
       id="path8059"
       sodipodi:type="arc"
       sodipodi:cx="339.54575"
       sodipodi:cy="156.38365"
       sodipodi:rx="47.150314"
       sodipodi:ry="38.065666"
       sodipodi:start="2.1983925"
       sodipodi:end="0.85528861"
       d="m 311.85905,187.19558 a 47.150314,38.065666 0 0 1 -17.47019,-41.76327 47.150314,38.065666 0 0 1 43.08502,-27.07756 47.150314,38.065666 0 0 1 45.86339,23.91905 47.150314,38.065666 0 0 1 -12.86088,42.8403 l -30.93064,-28.73045 z" />
    <path
       style="fill:#000000;stroke:#ff8080;stroke-width:0.97736323"
       id="path8078"
       sodipodi:type="arc"
       sodipodi:cx="339.54575"
       sodipodi:cy="156.38365"
       sodipodi:rx="36.407574"
       sodipodi:ry="32.010456"
       sodipodi:start="2.2678442"
       sodipodi:end="1.6201525"
       d="m 316.17365,180.92737 a 36.407574,32.010456 0 0 1 -7.94588,-40.8674 36.407574,32.010456 0 0 1 44.59214,-13.48332 36.407574,32.010456 0 0 1 22.32383,36.51994 36.407574,32.010456 0 0 1 -37.3942,25.25854 l 1.79621,-31.97148 z"
       inkscape:transform-center-x="-2.6520135"
       inkscape:transform-center-y="3.0407557" />
    <path
       style="fill:#ff9955;stroke:#ff8080;stroke-width:0.97736323"
       id="path8059-3"
       sodipodi:type="arc"
       sodipodi:cx="499.54636"
       sodipodi:cy="154.26154"
       sodipodi:rx="47.150311"
       sodipodi:ry="38.065666"
       sodipodi:start="2.1983925"
       sodipodi:end="0.85528861"
       d="m 471.85966,185.07346 a 47.150311,38.065666 0 0 1 -17.47018,-41.76326 47.150311,38.065666 0 0 1 43.08502,-27.07756 47.150311,38.065666 0 0 1 45.86337,23.91904 47.150311,38.065666 0 0 1 -12.86088,42.84031 l -30.93063,-28.73045 z" />
    <path
       style="fill:#000000;stroke:#ff8080;stroke-width:0.97736323"
       id="path8078-6"
       sodipodi:type="arc"
       sodipodi:cx="499.54636"
       sodipodi:cy="154.26154"
       sodipodi:rx="36.407574"
       sodipodi:ry="32.010456"
       sodipodi:start="2.2678442"
       sodipodi:end="1.6201525"
       d="m 476.17426,178.80525 a 36.407574,32.010456 0 0 1 -7.94588,-40.8674 36.407574,32.010456 0 0 1 44.59214,-13.48332 36.407574,32.010456 0 0 1 22.32383,36.51994 36.407574,32.010456 0 0 1 -37.3942,25.25854 l 1.79621,-31.97147 z"
       inkscape:transform-center-x="-2.6520135"
       inkscape:transform-center-y="3.0407557" />
    <path
       sodipodi:type="spiral"
       style="fill:none;fill-rule:evenodd;stroke:#000000;stroke-width:1px;stroke-linecap:butt;stroke-linejoin:miter;stroke-opacity:1"
       id="path747"
       sodipodi:cx="391.97446"
       sodipodi:cy="275.27701"
       sodipodi:expansion="1"
       sodipodi:revolution="2.9614301"
       sodipodi:radius="12.931499"
       sodipodi:argument="-17.76306"
       sodipodi:t0="0"
       d="m 391.97446,275.27701 c 0.3058,0.58127 -0.63268,0.699 -0.96612,0.50826 -0.90361,-0.51687 -0.67359,-1.80845 -0.0504,-2.4405 1.11472,-1.1306 2.97228,-0.72676 3.91489,0.40744 1.38331,1.66449 0.78672,4.1538 -0.8653,5.38928 -2.20189,1.6467 -5.34183,0.84989 -6.86366,-1.32316 -1.91508,-2.73456 -0.9148,-6.53302 1.78101,-8.33804 3.26498,-2.18613 7.72602,-0.9807 9.81243,2.23886 2.45876,3.79415 1.04724,8.92015 -2.69672,11.28682 -4.32256,2.73242 -10.11501,1.11421 -12.76121,-3.15458 -3.00677,-4.85047 -1.18148,-11.3104 3.61244,-14.23558 5.37804,-3.28162 12.50618,-1.24896 15.70997,4.07028 2.93954,4.88051 1.98178,11.27866 -2.03611,15.25604"
       transform="matrix(1.01039,0,0,0.94541603,-27.690726,39.6276)" />
    <path
       sodipodi:type="spiral"
       style="fill:none;fill-rule:evenodd;stroke:#000000;stroke-width:1px;stroke-linecap:butt;stroke-linejoin:miter;stroke-opacity:1"
       id="path749"
       sodipodi:cx="423.11761"
       sodipodi:cy="282.79434"
       sodipodi:expansion="1"
       sodipodi:revolution="2.9614301"
       sodipodi:radius="19.975744"
       sodipodi:argument="-17.974464"
       sodipodi:t0="0"
       d="m 423.11761,282.79434 c 0.65029,0.77881 -0.72898,1.2608 -1.29442,1.08081 -1.5323,-0.48776 -1.60354,-2.51305 -0.8672,-3.66966 1.31715,-2.06892 4.25361,-2.06108 6.04491,-0.65358 2.6288,2.06556 2.53461,6.01866 0.43996,8.42014 -2.79185,3.20081 -7.79252,3.01512 -10.79538,0.22635 -3.7788,-3.50939 -3.49925,-9.57061 -0.0127,-13.17062 4.22264,-4.3601 11.35108,-3.98549 15.54586,0.20088 4.9434,4.9335 4.47305,13.13304 -0.41451,17.9211 -5.64287,5.528 -14.91599,4.9615 -20.29633,-0.62812 -6.11348,-6.35128 -5.45057,-16.69965 0.84173,-22.67157 7.05902,-6.6996 18.48382,-5.94008 25.04682,1.05535 6.02167,6.41844 6.649,16.39229 1.86983,23.70186"
       transform="matrix(1.01039,0,0,0.94541603,-29.860847,30.490037)" />
    <path
       sodipodi:type="spiral"
       style="fill:none;fill-rule:evenodd;stroke:#000000;stroke-width:1px;stroke-linecap:butt;stroke-linejoin:miter;stroke-opacity:1"
       id="path751"
       sodipodi:cx="459.63031"
       sodipodi:cy="282.79434"
       sodipodi:expansion="1"
       sodipodi:revolution="2.9614301"
       sodipodi:radius="20.656929"
       sodipodi:argument="-18.450611"
       sodipodi:t0="0"
       d="m 459.63031,282.79434 c 0.9668,0.40756 -0.0724,1.50431 -0.67738,1.60689 -1.6395,0.278 -2.66493,-1.54962 -2.5364,-2.96166 0.22991,-2.5258 2.93246,-3.91044 5.24593,-3.4659 3.39512,0.65239 5.18228,4.33022 4.39541,7.53021 -1.04877,4.26508 -5.73278,6.46468 -9.81448,5.32491 -5.13641,-1.43428 -7.75243,-7.1375 -6.25442,-12.09875 1.81429,-6.00875 8.54342,-9.04325 14.38303,-7.18393 6.88178,2.19114 10.33598,9.95008 8.11343,16.66731 -2.56602,7.7553 -11.35723,11.63 -18.95158,9.04293 -8.62918,-2.93959 -12.92492,-12.76473 -9.97244,-21.23585 3.31223,-9.50332 14.17249,-14.22049 23.52013,-10.90195 8.57663,3.04483 13.88068,11.91421 12.95292,20.89752"
       transform="matrix(1.01039,0,0,0.94541603,-29.860847,30.490037)" />
    <path
       sodipodi:type="spiral"
       style="fill:none;fill-rule:evenodd;stroke:#000000;stroke-width:1px;stroke-linecap:butt;stroke-linejoin:miter;stroke-opacity:1"
       id="path753"
       sodipodi:cx="497.21692"
       sodipodi:cy="275.27701"
       sodipodi:expansion="1"
       sodipodi:revolution="2.9614301"
       sodipodi:radius="14.407915"
       sodipodi:argument="-17.500065"
       sodipodi:t0="0"
       d="m 497.21692,275.27701 c 0.16063,0.71395 -0.88314,0.56877 -1.18663,0.26698 -0.82245,-0.81782 -0.20087,-2.14075 0.65267,-2.64025 1.52677,-0.89348 3.40827,0.079 4.09386,1.57232 1.00613,2.19144 -0.35677,4.69679 -2.49198,5.54748 -2.84589,1.13384 -5.99324,-0.63292 -7.00109,-3.41163 -1.26828,-3.49672 0.90814,-7.2936 4.33128,-8.4547 4.14589,-1.40625 8.5962,1.18278 9.90833,5.25093 1.54629,4.79417 -1.45708,9.90018 -6.17059,11.36194 -5.44194,1.68765 -11.2051,-1.73113 -12.81555,-7.09024 -1.82991,-6.08937 2.005,-12.51066 8.00989,-14.26917 6.73657,-1.97278 13.81669,2.27877 15.72278,8.92955 1.74887,6.1022 -1.1348,12.70831 -6.60956,15.82362"
       transform="matrix(1.01039,0,0,0.94541603,-34.201089,42.673454)" />
    <path
       sodipodi:type="spiral"
       style="fill:none;fill-rule:evenodd;stroke:#000000;stroke-width:1px;stroke-linecap:butt;stroke-linejoin:miter;stroke-opacity:1"
       id="path757"
       sodipodi:cx="425.26544"
       sodipodi:cy="308.56799"
       sodipodi:expansion="1"
       sodipodi:revolution="2.9614301"
       sodipodi:radius="18.256344"
       sodipodi:argument="-17.526375"
       sodipodi:t0="0"
       d="m 425.26544,308.56799 c 0.22727,0.89899 -1.09969,0.74988 -1.49417,0.37773 -1.06902,-1.00849 -0.32578,-2.70492 0.73871,-3.36607 1.90413,-1.18264 4.31978,-0.0135 5.23797,1.85515 1.34748,2.74229 -0.29534,5.96115 -2.97158,7.10987 -3.56701,1.53106 -7.61254,-0.60192 -8.98178,-4.08802 -1.72304,-4.38691 0.90718,-9.26884 5.20447,-10.85368 5.20458,-1.91944 10.92794,1.21165 12.72557,6.32091 2.11845,6.02107 -1.51562,12.5888 -7.43734,14.59747 -6.83687,2.3191 -14.25082,-1.81925 -16.46938,-8.55378 -2.52086,-7.6522 2.12265,-15.91366 9.67022,-18.34128 8.46723,-2.72341 17.57711,2.42589 20.21318,10.78666 2.41865,7.67117 -1.0138,16.13502 -7.84465,20.26358"
       transform="matrix(1.01039,0,0,0.94541603,-43.966633,31.505322)" />
    <path
       sodipodi:type="spiral"
       style="fill:none;fill-rule:evenodd;stroke:#000000;stroke-width:1px;stroke-linecap:butt;stroke-linejoin:miter;stroke-opacity:1"
       id="path763"
       sodipodi:cx="457.48251"
       sodipodi:cy="318.23312"
       sodipodi:expansion="1"
       sodipodi:revolution="2.9614301"
       sodipodi:radius="20.062157"
       sodipodi:argument="-18.336267"
       sodipodi:t0="0"
       d="m 457.48251,318.23312 c 0.88768,0.50037 -0.23653,1.44343 -0.83164,1.47538 -1.6127,0.0866 -2.39958,-1.79048 -2.1191,-3.13866 0.50172,-2.41158 3.26274,-3.44811 5.44567,-2.76283 3.20354,1.00568 4.52037,4.75232 3.40656,7.75269 -1.48454,3.99901 -6.24771,5.60229 -10.0597,4.05028 -4.79701,-1.95305 -6.68914,-7.74577 -4.69401,-12.36672 2.41637,-5.59658 9.24532,-7.77881 14.67373,-5.33774 6.39719,2.87673 8.87026,10.74581 5.98146,16.98075 -3.33522,7.19848 -12.2469,9.96289 -19.28776,6.6252 -8.00026,-3.79251 -11.05634,-13.74845 -7.26892,-21.59478 4.24892,-8.80239 15.2503,-12.15041 23.90179,-7.91265 7.93789,3.88822 12.07278,13.03371 10.18217,21.59859"
       transform="matrix(1.01039,0,0,0.94541603,-15.338177,27.315033)" />
    <path
       sodipodi:type="spiral"
       style="fill:none;fill-rule:evenodd;stroke:#000000;stroke-width:1px;stroke-linecap:butt;stroke-linejoin:miter;stroke-opacity:1"
       id="path767"
       sodipodi:cx="404.8613"
       sodipodi:cy="331.11993"
       sodipodi:expansion="1"
       sodipodi:revolution="2.9614301"
       sodipodi:radius="15.96471"
       sodipodi:argument="-17.774233"
       sodipodi:t0="0"
       d="m 404.8613,331.11993 c 0.38552,0.71336 -0.77139,0.87163 -1.18565,0.64077 -1.12262,-0.6256 -0.85648,-2.2232 -0.0959,-3.01206 1.36051,-1.41108 3.6592,-0.93817 4.83848,0.44898 1.73064,2.0357 1.02849,5.11694 -0.99386,6.66491 -2.69547,2.0632 -6.58267,1.12286 -8.49132,-1.53874 -2.40185,-3.34936 -1.21941,-8.05229 2.08361,-10.31774 4.00041,-2.74377 9.52412,-1.31723 12.14416,2.62849 3.08764,4.6499 1.41585,10.99732 -3.17337,13.97058 -5.29843,3.43275 -12.47143,1.515 -15.79699,-3.71825 -3.77872,-5.94635 -1.61453,-13.9462 4.26312,-17.62342 6.59384,-4.12528 15.42144,-1.71432 19.44984,4.80801 3.69612,5.98435 2.60204,13.89597 -2.3031,18.8614"
       transform="matrix(1.01039,0,0,0.94541603,5.9461481,38.612315)" />
    <path
       sodipodi:type="spiral"
       style="fill:none;fill-rule:evenodd;stroke:#000000;stroke-width:1px;stroke-linecap:butt;stroke-linejoin:miter;stroke-opacity:1"
       id="path769"
       sodipodi:cx="433.85666"
       sodipodi:cy="324.67654"
       sodipodi:expansion="1"
       sodipodi:revolution="2.9614301"
       sodipodi:radius="18.001881"
       sodipodi:argument="-17.339302"
       sodipodi:t0="0"
       d="m 433.85666,324.67654 c 0.0553,0.91267 -1.20296,0.52486 -1.51691,0.0919 -0.85079,-1.17313 0.18042,-2.68043 1.33301,-3.12577 2.06171,-0.79661 4.18773,0.77915 4.73463,2.75797 0.8026,2.904 -1.37937,5.72135 -4.18293,6.3435 -3.73671,0.82922 -7.26508,-1.97925 -7.95235,-5.6079 -0.86487,-4.56627 2.57875,-8.81382 7.03285,-9.56121 5.39451,-0.90519 10.36542,3.17801 11.17007,8.45782 0.94826,6.22207 -3.77709,11.9188 -9.88277,12.77893 -7.04925,0.99305 -13.47339,-4.37607 -14.3878,-11.30774 -1.03901,-7.8762 4.97498,-15.0288 12.7327,-15.99665 8.70299,-1.08579 16.58483,5.57382 17.60552,14.15766 0.9365,7.87582 -3.94126,15.44661 -11.31652,18.19388"
       transform="matrix(1.01039,0,0,0.94541603,-19.010242,18.30662)"
       inkscape:transform-center-x="23.625853"
       inkscape:transform-center-y="-2.1319742" />
    <text
       xml:space="preserve"
       style="font-style:oblique;font-variant:normal;font-weight:normal;font-stretch:normal;font-size:30.49930191px;line-height:2.07949805px;font-family:'Tlwg Mono';-inkscape-font-specification:'Tlwg Mono Oblique';letter-spacing:0px;word-spacing:0px;fill:#000000;fill-opacity:1;stroke:none;stroke-width:2.07949805px;stroke-linecap:butt;stroke-linejoin:miter;stroke-opacity:1"
       x="545.69293"
       y="570.55365"
       id="text808"
       transform="matrix(1.4549483,-0.01131087,-0.80127745,0.69353884,0,0)"><tspan
         sodipodi:role="line"
         id="tspan806"
         x="545.69293"
         y="570.55365"
         style="stroke-width:2.07949805px"> </tspan><tspan
         sodipodi:role="line"
         x="545.69293"
         y="572.63312"
         style="stroke-width:2.07949805px"
         id="tspan810">Shumai</tspan></text>
  </g>
</svg>
